<?xml version="1.0" encoding="utf-8"?>
<!-- Generator: Adobe Illustrator 24.2.1, SVG Export Plug-In . SVG Version: 6.00 Build 0)  -->
<svg version="1.1" id="Layer_1" xmlns="http://www.w3.org/2000/svg" xmlns:xlink="http://www.w3.org/1999/xlink" x="0px" y="0px"
	 viewBox="0 0 1024 1024" style="enable-background:new 0 0 1024 1024;" xml:space="preserve">
<style type="text/css">
	.st0{fill:#D6E2E9;}
	.st1{fill:#3A65A3;}
</style>
<g>
	<path class="st0" d="M510,1023.5c-147.06,0-255.98-66.56-321.46-122.4C106.27,830.94,43.5,735.41,16.33,639.01
		C0.16,581.62,0.39,535.43,0.49,515.71c0.01-1.37,0.01-2.6,0.01-3.71c0-69.05,13.47-136.04,40.04-199.1
		c25.66-60.91,62.4-115.61,109.19-162.59c46.79-46.98,101.28-83.86,161.95-109.62C374.49,14.02,441.22,0.5,510,0.5
		s135.51,13.52,198.32,40.2c60.67,25.76,115.16,62.64,161.95,109.62c46.79,46.98,83.53,101.68,109.19,162.59
		c26.57,63.06,40.04,130.05,40.04,199.1s-13.47,136.04-40.04,199.1c-25.66,60.91-62.4,115.61-109.19,162.59
		c-46.79,46.98-101.28,83.86-161.95,109.62C645.51,1009.98,578.78,1023.5,510,1023.5z"/>
	<path d="M510,1c68.71,0,135.37,13.51,198.12,40.16c60.61,25.74,115.05,62.58,161.79,109.51C916.66,197.6,953.36,252.25,979,313.09
		c26.54,63,40,129.92,40,198.91s-13.46,135.91-40,198.91c-25.64,60.85-62.34,115.5-109.08,162.43
		c-46.75,46.93-101.18,83.77-161.79,109.51C645.37,1009.49,578.71,1023,510,1023c-60.17,0-119.27-11.39-175.67-33.85
		c-52-20.71-100.95-50.46-145.47-88.43c-41.76-35.61-78.17-77.11-108.21-123.34c-29.08-44.75-50.56-91.35-63.85-138.51
		C0.66,581.55,0.89,535.41,0.99,515.71C0.99,514.34,1,513.1,1,512c0-68.99,13.46-135.91,40-198.91
		c25.64-60.85,62.34-115.5,109.08-162.43c46.75-46.93,101.18-83.77,161.79-109.51C374.63,14.51,441.29,1,510,1 M510,0
		C228.33,0,0,229.23,0,512c0,16.97-1.47,65.69,15.85,127.14C68.39,825.58,258.24,1024,510,1024c281.67,0,510-229.23,510-512
		S791.67,0,510,0L510,0z"/>
</g>
<g>
	<ellipse class="st0" cx="1089" cy="528" rx="0" ry="21"/>
	<path d="M1089,507L1089,507L1089,507L1089,507z M1089,507c0,0,0,9.4,0,21s0,21,0,21c0,0,0-9.4,0-21S1089,507,1089,507L1089,507z
		 M1089,549L1089,549L1089,549L1089,549z"/>
</g>
<g>
	<ellipse class="st0" cx="1311" cy="684" rx="0" ry="21"/>
	<path d="M1311,663L1311,663L1311,663L1311,663z M1311,663c0,0,0,9.4,0,21s0,21,0,21c0,0,0-9.4,0-21S1311,663,1311,663L1311,663z
		 M1311,705L1311,705L1311,705L1311,705z"/>
</g>
<g>
	<g>
		<path class="st1" d="M1.28,512.52c11.58,12.39,30.06,13.33,45.1,7.33c13.93-5.55,25.29-15.86,36.25-25.78
			c11.28-10.21,22.95-21.57,37.65-26.58c19.12-6.53,37.62,1.84,51.48,15.24c15.1,14.61,24.42,33.9,38.48,49.39
			c12.46,13.73,28.71,23.04,46.65,27.54c37.79,9.48,76.46-2.01,108.33-22.85c16.89-11.04,32.1-24.44,46.27-38.77
			c15.69-15.87,30.64-33.17,49.83-44.99c18.64-11.48,41.99-17.64,63.05-9.16c19.01,7.66,32.61,24.32,46,39.09
			c15.56,17.15,32.01,33.49,49.28,48.92c15.84,14.15,32.23,28.5,50.42,39.59c17.49,10.66,36.89,16.76,57.5,15.65
			c20.51-1.1,40.27-8.27,58.31-17.8c37.58-19.86,67.46-51.27,104.74-71.63c31.63-17.28,73.11-25.52,105.94-6.27
			c6.44,3.78,15.73,10.07,18.91,17.17c0.79,1.76,3.37,0.23,2.59-1.51c-2.93-6.53-10.8-12.25-16.59-16.12
			c-6.44-4.3-13.62-7.49-21.04-9.66c-15.95-4.66-33.05-4.81-49.32-1.84c-40.31,7.37-72.7,35.45-104.44,59.37
			c-33.77,25.45-75.45,52-119.83,44.1c-22.03-3.92-40.94-16.7-58.12-30.39c-17.76-14.16-34.73-29.32-50.89-45.27
			c-15.43-15.23-29.14-32.17-44.78-47.16c-13.59-13.02-29.82-23.13-49.19-23.26c-44.21-0.3-73.05,38.63-101.82,66.29
			c-29.68,28.54-66.48,53.75-108.76,56.6c-19.58,1.32-39.76-1.97-57.2-11.22c-19.13-10.14-31-27.1-43.12-44.42
			c-10.68-15.25-22.8-30.8-40.45-38.26c-14.53-6.14-29.95-4.21-43.44,3.47c-26.38,15.03-45.74,49.45-78.6,51.13
			c-10.08,0.51-20.06-2.61-27.04-10.08C2.08,508.99-0.04,511.11,1.28,512.52L1.28,512.52z"/>
	</g>
</g>
<g>
	<g>
		<path class="st1" d="M1216.81,471.09c1.93,0,1.93-3,0-3C1214.87,468.09,1214.87,471.09,1216.81,471.09L1216.81,471.09z"/>
	</g>
</g>
<g>
	<g>
		<path class="st1" d="M20.24,644.92c31.35,18.53,64.13-10.08,89.53-25.78c15.98-9.88,33.6-16.77,52.45-11.38
			c18.82,5.38,35.55,18.03,52.68,27.18c32.03,17.11,67.46,30.87,104.42,27.67c17.5-1.51,34.06-7.01,48.8-16.59
			c15.51-10.08,28.92-23.01,44.79-32.58c17.1-10.31,35.87-17.69,54.8-23.88c19.04-6.23,39.14-10.53,59.09-6.27
			c32.98,7.05,58.56,31.69,85.6,50.12C666.36,670.21,737,676.82,796.8,650.1c15.35-6.86,29.24-16.03,42.33-26.52
			c14.23-11.41,27.61-23.93,42.67-34.29c30.54-21,68.18-28.04,104.01-17.6c8.68,2.53,16.98,6.09,24.85,10.53
			c1.68,0.95,3.2-1.64,1.51-2.59c-29.55-16.67-65.67-20.33-98-10c-34.68,11.08-58.79,38.95-87.48,59.72
			c-54.86,39.7-131.7,45.26-191.85,14.16c-29.59-15.3-53.25-39.97-83.24-54.57c-14.6-7.11-30.35-11.16-46.65-10.28
			c-19.3,1.04-38.05,7.54-55.96,14.38c-17.38,6.63-34.25,14.7-49.36,25.63c-15.03,10.88-28.72,23.91-45.66,31.9
			c-35.88,16.94-77.69,9.11-112.67-6.07c-17.76-7.71-34.54-17.37-51.28-27.03c-14.94-8.63-30.9-16.66-48.68-14.29
			c-35.56,4.75-58.15,39.93-94.05,44.17c-8.97,1.06-17.72-0.4-25.53-5.02C20.09,641.34,18.58,643.94,20.24,644.92L20.24,644.92z"/>
	</g>
</g>
<g>
	<g>
		<path class="st1" d="M67.65,747.32c20.21,17.54,47.12,22.3,73.17,20.39c30.28-2.22,58.4-13.25,86.99-22.59
			c32.45-10.6,65.55-17.79,99.23-8.36c31.71,8.88,59.54,27.4,90.54,38.14c14.83,5.14,30.52,8.69,46.29,8.26
			c14.83-0.4,28.77-4.79,41.69-11.95c12.96-7.18,24.64-16.38,37-24.49c12.9-8.47,26.58-15.11,41.69-18.55
			c31.17-7.11,64.25-1.84,93.74,9.56c29.87,11.55,57.29,30,90.35,30.54c16.71,0.27,33.28-3.14,49.29-7.62
			c15.86-4.44,31.38-10.06,46.43-16.75c14.94-6.65,29.05-14.86,43.68-22.13c14.09-7.01,29.36-13.58,45.33-14.09
			c7.72-0.24,15.18,1.16,22.3,4.11c1.78,0.74,2.56-2.16,0.8-2.89c-28.21-11.73-57.81,3.64-82.54,16.81
			c-29.66,15.79-60.36,29.24-93.41,36.16c-17.7,3.71-35.94,4.9-53.66,0.67c-15.97-3.81-30.79-11.07-45.58-17.99
			c-27.71-12.98-56.69-22.62-87.62-22.56c-14.85,0.03-29.77,2.29-43.76,7.35c-13.64,4.94-25.77,12.72-37.61,20.95
			c-11.86,8.25-23.63,16.95-36.92,22.82c-15.53,6.87-32.4,8.36-49.11,5.91c-33.3-4.89-62.28-23.04-92.75-36.01
			c-14.06-5.99-28.64-10.98-43.84-12.98c-15.8-2.08-31.77-0.72-47.33,2.49c-31.47,6.49-60.79,20.33-92.03,27.6
			c-26.84,6.25-57.24,8.53-82.86-3.56c-6.31-2.97-12.11-6.8-17.38-11.37C68.32,743.94,66.19,746.05,67.65,747.32L67.65,747.32z"/>
	</g>
</g>
<g>
	<g>
		<path class="st1" d="M133.33,849.86c46.63,15.68,94.95-4.17,140.3-14.99c25.11-5.99,50.72-8.82,76.53-7.67
			c26.13,1.17,51.46,6.63,76.31,14.58c46.36,14.83,96.1,36.65,145.39,21.98c21.3-6.34,40.01-18.75,60.45-27.15
			c10.58-4.35,21.7-7.55,33.19-7.98c13.37-0.49,26.55,2.36,39.48,5.42c26.03,6.17,52.03,12.45,78.05,18.68
			c25.15,6.02,50.45,13.18,76.34,15.07c6.44,0.47,12.89,0.55,19.34,0.22c1.92-0.1,1.93-3.1,0-3c-26.66,1.36-52.68-5.09-78.4-11.24
			c-25.8-6.18-51.6-12.35-77.4-18.53c-23.95-5.73-48.55-13.19-73.23-7.48c-21.1,4.88-39.68,16.68-59.17,25.6
			c-10.68,4.89-21.73,8.78-33.36,10.65c-12.63,2.02-25.58,1.84-38.26,0.35c-25.78-3.03-50.4-11.66-74.87-19.94
			c-24.05-8.14-48.19-15.46-73.48-18.55c-24.9-3.04-50.19-2.52-74.95,1.46c-24.26,3.9-47.72,11.45-71.53,17.35
			c-23.64,5.86-48.45,10.47-72.8,6.54c-5.83-0.94-11.54-2.39-17.14-4.27C132.29,846.35,131.51,849.24,133.33,849.86L133.33,849.86z"
			/>
	</g>
</g>
<g>
	<g>
		<path class="st1" d="M272.34,956.97c30.51-5.34,53.94-28.77,84.08-35.06c17.17-3.58,34.05,0.79,49.92,7.37
			c16.52,6.84,32.27,15.26,49.29,20.92c34.39,11.43,71.07,13.88,106.08,3.73c17.1-4.95,33.42-12.28,49.2-20.45
			c7.94-4.11,15.75-8.48,23.54-12.87c8.1-4.56,16.33-8.98,25.33-11.48c36.54-10.13,72.71,8.29,102.84,27.22
			c3.91,2.46,7.8,4.96,11.68,7.46c1.63,1.05,3.13-1.55,1.51-2.59c-30.06-19.34-62.95-39.95-100.21-37.7
			c-8.81,0.53-17.45,2.44-25.6,5.84c-8.29,3.46-16,8.08-23.83,12.45c-16.12,9-32.58,17.56-49.89,24.07
			c-17.12,6.44-35,10.73-53.32,11.49c-18.44,0.76-36.91-1.7-54.7-6.51c-17.95-4.85-34.53-12.57-51.39-20.23
			c-15.55-7.07-32.06-13.64-49.45-13.07c-31.54,1.03-55.84,24.51-84.82,33.77c-3.63,1.16-7.33,2.07-11.08,2.73
			C269.65,954.41,270.45,957.3,272.34,956.97L272.34,956.97z"/>
	</g>
</g>
</svg>
